<?xml version="1.0" encoding="UTF-8"?>
<svg width="84px" height="84px" viewBox="0 0 84 84" version="1.1" xmlns="http://www.w3.org/2000/svg" xmlns:xlink="http://www.w3.org/1999/xlink">
    <!-- Generator: Sketch 42 (36781) - http://www.bohemiancoding.com/sketch -->
    <title>Untitled 6</title>
    <desc>Created with Sketch.</desc>
    <defs></defs>
    <g id="Page-1" stroke="none" stroke-width="1" fill="none" fill-rule="evenodd">
        <path d="M35.0108268,0.99951307 C16.3021658,0.99951307 0.9950798,16.271166 0.9950798,34.979827 C0.9950798,53.688488 16.3021658,68.995575 35.0108268,68.995575 C42.2037408,68.995575 48.8651578,66.692425 54.3572838,62.865654 L72.7470468,81.219984 C75.0856298,83.594 78.9124008,83.594 81.2509838,81.219984 C83.5895658,78.881401 83.5895658,75.090063 81.2509838,72.75148 L62.8612198,54.361717 C66.7234248,48.834158 68.9911418,42.172741 68.9911418,34.979827 C68.9911418,16.271166 53.6840548,0.99951307 35.0108268,0.99951307 L35.0108268,0.99951307 Z M35.0108268,12.975891 C47.1998028,12.975891 56.9793308,22.755418 56.9793308,34.979827 C56.9793308,47.204237 47.1998028,56.983764 35.0108268,56.983764 C22.7864178,56.983764 13.0068908,47.204237 13.0068908,34.979827 C13.0068908,22.755418 22.7864178,12.975891 35.0108268,12.975891 L35.0108268,12.975891 Z" id="Shape" fill="#FFFFFF" fill-rule="nonzero"></path>
    </g>
</svg>